<svg id="Ebene_1" data-name="Ebene 1" xmlns="http://www.w3.org/2000/svg" xmlns:xlink="http://www.w3.org/1999/xlink" viewBox="0 0 377.24 377.13"><defs><style>.cls-1{fill:#3a3c40;}.cls-2{fill:#fff;}.cls-3{fill:url(#Unbenannter_Verlauf_199);}</style><radialGradient id="Unbenannter_Verlauf_199" cx="216.79" cy="214.32" r="179.44" gradientUnits="userSpaceOnUse"><stop offset="0.16" stop-color="#61a3d6"/><stop offset="0.71" stop-color="#477DEA"/></radialGradient></defs><g id="mit_Verlauf" data-name="mit Verlauf"><path class="cls-1" d="M193,4.43C88.77,4.43,4.29,88.91,4.29,193.12a187.8,187.8,0,0,0,22.1,88.66l67-76.39,37,24.42c29.08-32.82,58-65.49,87.12-98.37l35.2,26.37L330,63.37A188.17,188.17,0,0,0,193,4.43Z" transform="translate(-4.29 -4.43)"/><path class="cls-2" d="M56.26,323.06Q79,297.16,101.8,271.17c11.1,7.34,22.1,14.3,32.71,21.79,3.57,2.52,5.21,1.48,7.6-1.23q39.33-44.44,78.81-88.74c1.08-1.22,2.22-2.38,3.55-3.81L261,226.33l99-121.18a189,189,0,0,0-30-41.78l-77.29,94.44-35.2-26.37c-29.11,32.88-58,65.55-87.12,98.37l-37-24.42-67,76.39A189.76,189.76,0,0,0,56.26,323.06Z" transform="translate(-4.29 -4.43)"/><path class="cls-3" d="M192.85,381.57c104.21,0,188.69-84.48,188.69-188.69a187.84,187.84,0,0,0-21.61-87.73L261,226.33l-36.48-27.15c-1.33,1.43-2.47,2.59-3.55,3.81q-39.43,44.34-78.81,88.74c-2.39,2.71-4,3.75-7.6,1.23-10.61-7.49-21.61-14.45-32.71-21.79q-22.81,26-45.54,51.89A188.16,188.16,0,0,0,192.85,381.57Z" transform="translate(-4.29 -4.43)"/></g></svg>