<?xml version="1.0" encoding="utf-8"?>
<!-- Generator: Adobe Illustrator 27.0.0, SVG Export Plug-In . SVG Version: 6.00 Build 0)  -->
<svg version="1.1" id="Ebene_1" xmlns="http://www.w3.org/2000/svg" xmlns:xlink="http://www.w3.org/1999/xlink" x="0px" y="0px"
	 viewBox="0 0 3232.4 377.1" style="enable-background:new 0 0 3232.4 377.1;" xml:space="preserve">
<style type="text/css">
	.st0{fill:#3A3C40;}
	.st1{fill:#FFFFFF;}
	.st2{fill:#477DEA;}
</style>
<g id="mit_Verlauf">
	<path class="st0" d="M1578.4,0c-104.2,0-188.7,84.5-188.7,188.7c0,30.9,7.5,61.4,22.1,88.7l67-76.4l37,24.4l87.1-98.4l35.2,26.4
		l77.3-94.4C1679.8,21.3,1630.2-0.1,1578.4,0z"/>
	<path class="st1" d="M1441.6,318.6l45.6-51.9c11.1,7.3,22.1,14.3,32.7,21.8c3.6,2.5,5.2,1.5,7.6-1.2c26.2-29.6,52.5-59.2,78.8-88.7
		c1.1-1.2,2.2-2.4,3.6-3.8l36.5,27.1l99-121.2c-8-15.2-18.1-29.3-30-41.8l-77.3,94.4l-35.2-26.4l-87.1,98.4l-37-24.4l-67,76.4
		C1419.8,292.4,1429.9,306.3,1441.6,318.6z"/>
	<path class="st2" d="M1578.2,377.1c104.2,0,188.7-84.5,188.7-188.7c0-30.6-7.4-60.7-21.6-87.7l-99,121.2l-36.5-27.1
		c-1.3,1.4-2.5,2.6-3.6,3.8c-26.3,29.6-52.6,59.1-78.8,88.7c-2.4,2.7-4,3.8-7.6,1.2c-10.6-7.5-21.6-14.5-32.7-21.8l-45.6,51.9
		C1477.2,356,1526.6,377.2,1578.2,377.1z"/>
</g>
<path class="st2" d="M146.9,34.5v53c-3.6-0.3-6.5-0.4-8.6-0.4c-11,0-18.3,1.9-22,5.7c-3.7,3.8-5.5,11.2-5.5,22.2v7.2h36.1v48h-36.1
	v163.1H27.5V170.1H0v-48h28.1c-0.3-20.2,1.5-36.3,5.4-48.2c2.7-8.9,7.9-16.9,14.9-23C54.8,45,62.6,40.8,71,38.5
	c12-3.1,29.8-4.6,53.2-4.6C128.9,33.9,136.5,34.1,146.9,34.5z"/>
<path class="st2" d="M179.8,34.1h84.3v60.4h-84.3V34.1z M179.8,333.3V122.2h84.3v211.1H179.8z"/>
<path class="st2" d="M311.7,333.3V121.6h77.5v32.9c10.2-13.8,20.9-23.7,32.2-29.7c11.3-6,24.6-9,39.8-9c26,0,46.1,7.2,60.3,21.6
	c14.2,14.4,21.4,35.8,21.4,64.1v131.8h-84.7V216.7c0-12.3-2.6-21.2-7.9-26.8c-5.3-5.5-12.7-8.3-22.4-8.3c-9.5,0-17.2,3.2-23.1,9.7
	s-8.8,16.9-8.8,31.2v110.8H311.7z"/>
<path class="st2" d="M672.3,186.4h-81.5c1.1-13.5,3.7-24.3,8-32.2s10.7-14.7,19.3-20.2c11.4-7.2,24.7-12.3,40.1-15.4
	c15.7-3,31.7-4.6,47.8-4.5c14.2-0.1,28.4,0.9,42.5,3.1c12.5,2.1,23.1,5.5,31.8,10.1s15.4,9.9,20.1,15.7c4.7,5.8,8.1,13.1,10.4,22.1
	c1.5,5.5,2.2,16.3,2.2,32.5v109c0,9.6,3.7,17.1,11,22.5v4.2h-86.6l-4.2-22.9c-10,9.5-21.8,17-34.7,22c-12.5,4.8-26.6,7.1-42.5,7.1
	c-26.5,0-46-6.3-58.6-18.9c-12.6-12.6-18.9-27.6-18.9-45c0-10,2.3-19.8,6.7-28.8c4.1-8.7,10.5-16.3,18.4-21.9
	c7.8-5.4,18.7-9.7,32.8-12.9s34.6-6.3,61.3-9.3c13.9-1.6,22.8-3.5,26.5-5.6c5.1-2.7,8.2-8.1,8-13.8c0.1-5.2-2.3-10-6.5-13.1
	c-4.3-3.3-12.1-5-23.2-5c-10.7,0-18.3,1.8-22.7,5.3C675.3,174.2,672.8,179.4,672.3,186.4z M731.1,239.2c-4,1.9-8.2,3.5-12.5,4.8
	c-5.2,1.6-14.8,3.9-28.8,6.8c-9.6,2-16.1,4.8-19.4,8.4c-3.3,3.6-5,8.4-4.9,13.2c-0.2,5.3,2.2,10.3,6.3,13.6
	c4.2,3.5,10.8,5.2,19.8,5.2c6.6,0,13.2-1.4,19.2-4.1c5.7-2.4,10.7-6.3,14.5-11.1c2.7-3.9,4.4-8.5,5-13.2
	C730.8,259.4,731.1,251.5,731.1,239.2z"/>
<path class="st2" d="M859.5,333.3V121.6H937v32.9c10.2-13.8,20.9-23.7,32.2-29.7c11.3-6,24.6-9,39.8-9c26,0,46.1,7.2,60.3,21.6
	c14.2,14.4,21.4,35.8,21.4,64.1v131.8H1006V216.7c0-12.3-2.6-21.2-7.9-26.8s-12.7-8.3-22.3-8.3c-9.5,0-17.2,3.2-23.1,9.7
	c-5.9,6.5-8.9,16.9-8.9,31.2v110.8H859.5z"/>
<path class="st2" d="M1123.4,333.3v-56.2L1219,183h-86.9v-60.8h190.7v58l-93.1,92.3h97.3v60.8H1123.4z"/>
<path class="st0" d="M1853.8,120.8v-65h82.9v65h40.3v48.2h-41.3v83.3c0,7.2,1.8,12.5,5.4,15.9c3.6,3.3,9.9,5,18.9,5h16.3v59.4
	c-15.6,1.8-31.3,2.7-47,2.6c-23.8,0-40.6-2.3-50.4-6.9s-16.6-11.1-20.6-19.6c-3.9-8.4-5.9-23.8-5.9-46v-93.6h-29.9v-48.2H1853.8z"/>
<path class="st0" d="M2015.1,333.5V122.4h76.7v42.3c6.8-17,15.6-29.3,26.3-37s24.1-11.5,40.1-11.5c3.3,0,6.7,0.3,10,0.8v83.9
	c-6.3-1.1-12.7-1.8-19.1-2c-16.6,0-29,4.4-37.3,13.1c-8.3,8.8-12.4,23.2-12.4,43.4v78.1L2015.1,333.5z"/>
<path class="st0" d="M2435.5,247h-160.4c0.5,12.6,4.5,22.4,11.7,29.4s17.6,10.5,31,10.5c14.5,0,24.6-5.8,30.5-17.3h80.5
	c-2.1,9.7-6.3,18.9-12.2,26.9c-9.6,12.7-23.2,23.1-40.5,31.3c-17.4,8.2-38.1,12.2-62,12.2c-38.3,0-68.3-10.2-90-30.6
	s-32.6-46.5-32.6-78.4c0-33.7,11-61.3,32.9-82.8s51-32.2,87.1-32.2c18.1-0.1,36.1,3.1,53.1,9.6c16.3,6.3,30.7,16.6,41.9,30
	c11.6,13.9,19.9,30.3,24.4,47.9C2434.1,215.4,2435.6,229.9,2435.5,247z M2275.8,204h76.1c-0.3-11.5-3.9-20.6-10.8-27.2
	c-7-6.6-16.3-9.9-28.1-9.9c-10.6,0-19.1,3.1-25.7,9.4C2280.6,182.6,2276.8,191.8,2275.8,204L2275.8,204z"/>
<path class="st0" d="M2470.6,333.5V121.8h77.5v32.9c10.2-13.8,20.9-23.7,32.2-29.7s24.6-9,39.8-9c26,0,46.1,7.2,60.3,21.6
	c14.2,14.4,21.4,35.8,21.4,64.1v131.8h-84.7V216.9c0-12.3-2.6-21.2-7.9-26.8s-12.7-8.3-22.4-8.3c-9.5,0-17.2,3.2-23.1,9.7
	c-5.9,6.5-8.8,16.9-8.8,31.2v110.8H2470.6z"/>
<path class="st0" d="M2893.3,143.2V41.9h84.3v291.6h-75.7V305c-8,11.9-17,20.7-27.1,26.3s-22.8,8.4-38.1,8.4c-28,0-51-9.6-68.9-28.9
	c-18-19.3-27-45.8-27-79.5c0-23,4-43.5,12.1-61.4s19.5-31.4,34.3-40.4c14.1-8.8,30.4-13.5,47.1-13.6c13.8,0,26,2.7,36.5,8
	C2878.3,127.9,2885.8,134.3,2893.3,143.2z M2896.3,228.9c0-16.7-3.2-28.9-9.7-36.6c-6.5-7.7-15-11.5-25.6-11.5
	c-10.8,0-19.6,4-26.4,12s-10.1,20.9-10.1,38.8c0,16.6,3.1,28.6,9.3,36c6.2,7.4,14.4,11.1,24.6,11.1c11.2,0,20.4-4,27.4-11.9
	C2892.8,258.8,2896.3,246.2,2896.3,228.9L2896.3,228.9z"/>
<path class="st0" d="M3012.3,267.5h80.5c0.1,7.8,2.9,14.1,8.2,19.1s12.6,7.4,21.7,7.4c8.4,0,14.8-1.8,19.2-5.4s6.5-8,6.5-13.2
	c0.1-3.7-1.3-7.2-3.7-10c-2.5-2.8-6.8-5-13-6.4l-47.6-11.4c-24.2-5.9-41.1-14.1-50.7-24.5c-9.6-10.4-14.4-23-14.4-37.7
	c0-13.5,3.8-25.4,11.3-35.7c7.6-10.3,18.8-18.5,33.7-24.5c14.9-6,34.2-9,57.9-9c35.5,0,61.2,6.3,77.2,19
	c16,12.7,24.5,28.3,25.4,46.9h-76.5c-0.5-5.8-3.4-11.1-7.8-14.8c-4.6-3.8-10.6-5.7-18.1-5.7c-7.8,0-13.8,1.7-18.3,5
	c-3.2,2.3-5,6.1-5,10c0,3.4,1.5,6.5,4,8.7c2.7,2.5,9,4.8,18.9,7.1l40.1,9c26.5,6,44.9,14.5,55.2,25.6s15.5,24.3,15.4,39.6
	c0.2,11.5-2.8,22.8-8.7,32.7c-5.8,9.7-13.9,17.8-23.6,23.6c-10,6.1-21.7,10.5-35.1,13.1c-14.1,2.7-28.3,4.1-42.6,4
	c-18.2,0-34.3-1.7-48.4-5.2s-25.7-8.9-34.9-16.4c-9.2-7.4-16.1-15.9-20.5-25.4C3015.7,286.5,3013.6,278,3012.3,267.5z"/>
</svg>
